<svg xmlns="http://www.w3.org/2000/svg" viewBox="0 0 128 128">
  <!-- Background hexagon -->
  <path fill="#f5f5f5" d="M64 8L8 64l56 56 56-56L64 8z"/>
  
  <!-- Lightning bolt -->
  <g transform="translate(32, 24) scale(0.65)">
    <path fill="#8711C1" d="M61.935 98.231c-3.393 2.51-1.09 7.883 3.068 7.156l12.338-2.158a4 4 0 0 1 4.634 3.277l2.154 12.807c.697 4.148 6.502 4.547 7.76.534l14.207-45.297c1.159-3.694-3.084-6.715-6.196-4.412z"/>
    <path fill="#8711C1" d="M84.787 76.192c.887-.632.651-2.009-.396-2.309l-20.783-5.952c-1.182-.339-2.13 1.001-1.417 2.003l9.8 13.772a1.3 1.3 0 0 0 1.814.305z"/>
    <path fill="#8711C1" d="M118.37 109.936c1.18.346 2.137-.989 1.43-1.995l-12.424-17.692c-.626-.891-2.005-.664-2.312.381l-3.795 12.936a1.3 1.3 0 0 0 .881 1.613z"/>
  </g>
  
  <!-- Subtle hexagon border -->
  <path fill="none" stroke="#8711C1" stroke-width="2" stroke-opacity="0.3" d="M64 8L8 64l56 56 56-56L64 8z"/>
</svg>